<svg width="50" height="51" viewBox="0 0 50 51" fill="none" xmlns="http://www.w3.org/2000/svg">
<path d="M25 0.157227C11.1929 0.157227 0 11.3522 0 25.1572C0 38.9643 11.1929 50.1552 25 50.1552C38.8071 50.1552 50 38.9643 50 25.1572C50 11.3522 38.8061 0.157227 25 0.157227ZM31.6162 25.0527H27.2873C27.2873 31.9704 27.2873 40.4912 27.2873 40.4912H20.8711C20.8711 40.4912 20.8711 32.0577 20.8711 25.0527H17.8193V19.6019H20.8711V16.0699C20.8711 13.542 22.0711 9.59581 27.3472 9.59581L32.0985 9.61408V14.9085C32.0985 14.9085 29.2091 14.9085 28.6487 14.9085C28.0853 14.9085 27.2883 15.1897 27.2883 16.3917V19.6029H32.1797L31.6162 25.0527Z" fill="white"/>
</svg>
