<svg width="50" height="50" viewBox="0 0 50 50" fill="none" xmlns="http://www.w3.org/2000/svg">
<rect width="50" height="50" rx="18" fill="#6D7E5A"/>
<path d="M24.9999 11.9961C17.9435 11.9961 12.0967 17.7421 12.0967 24.8993C12.0967 32.0566 17.8426 37.8025 24.9999 37.8025C32.1572 37.8025 37.9031 31.9558 37.9031 24.8993C37.9031 17.8429 32.0564 11.9961 24.9999 11.9961ZM24.9999 33.1655C20.4636 33.1655 16.7338 29.4356 16.7338 24.8993C16.7338 20.363 20.4636 16.6332 24.9999 16.6332C29.5362 16.6332 33.266 20.363 33.266 24.8993C33.266 29.4356 29.5362 33.1655 24.9999 33.1655Z" fill="white"/>
<path d="M38.4073 14.6173C40.0218 14.6173 41.3307 13.3084 41.3307 11.6939C41.3307 10.0794 40.0218 8.77051 38.4073 8.77051C36.7927 8.77051 35.4839 10.0794 35.4839 11.6939C35.4839 13.3084 36.7927 14.6173 38.4073 14.6173Z" fill="white"/>
<path d="M45.9677 4.13306C43.3468 1.41129 39.6169 0 35.3831 0H14.6169C5.84677 0 0 5.84677 0 14.6169V35.2823C0 39.6169 1.41129 43.3468 4.23387 46.0685C6.95564 48.6895 10.5847 50 14.7177 50H35.2823C39.6169 50 43.246 48.5887 45.8669 46.0685C48.5887 43.4476 50 39.7177 50 35.3831V14.6169C50 10.3831 48.5887 6.75403 45.9677 4.13306ZM45.5645 35.3831C45.5645 38.5081 44.4556 41.0282 42.6411 42.7419C40.8266 44.4556 38.3065 45.3629 35.2823 45.3629H14.7177C11.6935 45.3629 9.17339 44.4556 7.35887 42.7419C5.54435 40.9274 4.6371 38.4073 4.6371 35.2823V14.6169C4.6371 11.5927 5.54435 9.07258 7.35887 7.25806C9.07258 5.54435 11.6935 4.6371 14.7177 4.6371H35.4839C38.5081 4.6371 41.0282 5.54436 42.8427 7.35887C44.5565 9.17339 45.5645 11.6935 45.5645 14.6169V35.3831Z" fill="white"/>
</svg>
