<svg width="50" height="50" viewBox="0 0 50 50" fill="none" xmlns="http://www.w3.org/2000/svg">
<path d="M46.3035 0H3.69347C1.65402 0 0 1.60441 0 3.58177V46.4192C0 48.3956 1.65402 50 3.69347 50H46.3035C48.346 50 50 48.3946 50 46.4192V3.58177C50 1.6034 48.345 0 46.3035 0ZM15.1553 41.8563H7.60344V19.279H15.1553V41.8563ZM11.3799 16.1949H11.3293C8.79615 16.1949 7.15731 14.4608 7.15731 12.2944C7.15731 10.0798 8.84674 8.39398 11.4294 8.39398C14.0132 8.39398 15.6024 10.0798 15.653 12.2944C15.653 14.4608 14.0121 16.1949 11.3799 16.1949ZM42.3875 41.8563H34.8356V29.775C34.8356 26.7411 33.743 24.6703 31.0106 24.6703C28.9246 24.6703 27.6823 26.0666 27.1351 27.4157C26.9358 27.8972 26.8872 28.5707 26.8872 29.2463V41.8553H19.3354C19.3354 41.8553 19.4345 21.3941 19.3354 19.278H26.8872V22.4738C27.8907 20.9357 29.6854 18.7452 33.6945 18.7452C38.6626 18.7452 42.3885 21.9731 42.3885 28.9085V41.8563H42.3875Z" fill="white"/>
</svg>
