<svg width="49" height="50" viewBox="0 0 49 50" fill="none" xmlns="http://www.w3.org/2000/svg">
<circle cx="24.2718" cy="24.7572" r="24.2718" fill="#6D7E5A"/>
<path fill-rule="evenodd" clip-rule="evenodd" d="M24.2703 0C10.8674 0 0 11.1418 0 24.8863C0 35.8803 6.95259 45.2081 16.6 48.5C17.8139 48.7271 18.1963 47.9897 18.1963 47.3301C18.1963 46.7389 18.2084 45.0868 18.1963 43.01C11.4455 44.5143 10.0465 39.7321 10.0465 39.7321C8.94338 36.8572 7.35317 36.0918 7.35317 36.0918C5.14995 34.5486 7.51857 34.5782 7.51857 34.5782C9.95394 34.754 11.2376 37.1435 11.2376 37.1435C13.4029 40.944 16.9172 39.8457 18.2995 39.211C18.521 37.6024 19.1492 36.5057 19.8426 35.8834C14.4529 35.2549 8.78709 33.1205 8.78709 23.5842C8.78709 20.8664 9.73241 18.6464 11.2847 16.9072C11.0343 16.2787 10.1998 13.7476 11.5229 10.3204C11.5229 10.3204 13.5607 9.65146 18.1963 12.8733C20.1325 12.321 22.2097 12.0457 24.2734 12.0363C26.3355 12.0457 28.4112 12.321 30.3504 12.8733C34.986 9.65301 37.0208 10.3204 37.0208 10.3204C38.3439 13.7476 37.5109 16.2787 37.262 16.9072C38.8143 18.6464 39.7566 20.8664 39.7566 23.5842C39.7566 33.1454 34.0816 35.2487 28.6737 35.8632C29.5447 36.6332 30.3353 38.1267 30.3353 40.4478C30.3353 43.5591 30.3353 46.518 30.3353 47.3363C30.3353 48.0022 30.7267 48.738 31.9588 48.4969C41.5972 45.2004 48.5437 35.8772 48.5437 24.8863C48.5437 11.1418 37.6763 0 24.2703 0Z" fill="white"/>
<path d="M47.0437 25C47.0437 38.0208 36.8069 48.5 24.2718 48.5C11.7368 48.5 1.5 38.0208 1.5 25C1.5 11.9792 11.7368 1.5 24.2718 1.5C36.8069 1.5 47.0437 11.9792 47.0437 25Z" stroke="white" stroke-width="3"/>
</svg>
