<svg width="122" height="122" viewBox="0 0 122 122" fill="none" xmlns="http://www.w3.org/2000/svg">
<circle cx="61" cy="61" r="60.75" fill="white" stroke="black" stroke-width="0.5"/>
<path d="M28.987 96.046C28.987 98.0807 28.2823 99.098 26.873 99.098C26.3783 99.098 25.9117 99.0467 25.473 98.944V98.062C25.977 98.146 26.3923 98.188 26.719 98.188C27.1857 98.188 27.503 97.9733 27.671 97.544C27.8483 97.1147 27.937 96.536 27.937 95.808V90.026H25.907V89.2H28.987V96.046ZM38.1818 99H37.0058L36.0258 95.906H32.5118L31.5458 99H30.4398L33.6598 89.2H34.9338L38.1818 99ZM35.7878 94.996L34.2898 90.264L32.7778 94.996H35.7878ZM45.2667 89.2L42.2427 99H40.7727L37.9867 89.2H39.1627L41.5567 97.81L44.1187 89.2H45.2667ZM52.8107 99H51.6347L50.6547 95.906H47.1407L46.1747 99H45.0687L48.2887 89.2H49.5627L52.8107 99ZM50.4167 94.996L48.9187 90.264L47.4067 94.996H50.4167ZM59.1961 89.55L58.9721 90.488L58.1601 90.25C57.5815 90.11 57.0821 90.04 56.6621 90.04C55.5608 90.04 55.0101 90.53 55.0101 91.51C55.0101 91.9393 55.1781 92.294 55.5141 92.574C55.8501 92.8447 56.2561 93.064 56.7321 93.232C57.2175 93.3907 57.6981 93.568 58.1741 93.764C58.6595 93.9507 59.0701 94.2447 59.4061 94.646C59.7421 95.038 59.9101 95.5373 59.9101 96.144C59.9101 97.068 59.6255 97.7913 59.0561 98.314C58.4868 98.8273 57.6795 99.084 56.6341 99.084C56.1115 99.084 55.5841 99.0093 55.0521 98.86C54.5295 98.7013 54.1001 98.5193 53.7641 98.314L54.1141 97.516C54.9635 97.908 55.7661 98.104 56.5221 98.104C57.2875 98.104 57.8661 97.95 58.2581 97.642C58.6595 97.334 58.8601 96.886 58.8601 96.298C58.8601 95.7007 58.5381 95.234 57.8941 94.898C57.6048 94.7487 57.2828 94.6087 56.9281 94.478C56.5828 94.3473 56.2328 94.2073 55.8781 94.058C55.5328 93.8993 55.2155 93.722 54.9261 93.526C54.6461 93.33 54.4128 93.064 54.2261 92.728C54.0488 92.392 53.9601 92 53.9601 91.552C53.9601 90.7493 54.1981 90.1333 54.6741 89.704C55.1595 89.2747 55.8081 89.06 56.6201 89.06C57.4321 89.06 58.2908 89.2233 59.1961 89.55ZM65.5491 99.084C64.2144 99.084 63.1877 98.636 62.4691 97.74C61.7597 96.8347 61.4051 95.612 61.4051 94.072C61.4051 92.532 61.7831 91.314 62.5391 90.418C63.2951 89.522 64.3497 89.074 65.7031 89.074C66.4497 89.074 67.1824 89.2093 67.9011 89.48L67.6491 90.348C67.0797 90.1053 66.4077 89.984 65.6331 89.984C64.6531 89.984 63.8784 90.3433 63.3091 91.062C62.7397 91.7713 62.4551 92.7513 62.4551 94.002C62.4551 95.2433 62.7211 96.2513 63.2531 97.026C63.7944 97.7913 64.5457 98.174 65.5071 98.174C66.1417 98.174 66.9397 97.992 67.9011 97.628L68.1811 98.356C67.3784 98.8413 66.5011 99.084 65.5491 99.084ZM72.0729 94.394H71.2049V98.986H70.1549V89.186H72.9829C73.9349 89.186 74.6489 89.4053 75.1249 89.844C75.6102 90.2733 75.8529 90.8893 75.8529 91.692C75.8529 92.252 75.6569 92.7653 75.2649 93.232C74.8822 93.6987 74.4062 93.9693 73.8369 94.044C74.2942 94.1467 74.6162 94.296 74.8029 94.492C74.9989 94.6787 75.2275 95.0847 75.4889 95.71L76.8749 98.986H75.7689L74.4109 95.85C74.1589 95.262 73.8742 94.8747 73.5569 94.688C73.2489 94.492 72.7542 94.394 72.0729 94.394ZM72.9269 90.082H71.2049V93.498H72.7869C73.3655 93.498 73.8229 93.33 74.1589 92.994C74.5042 92.6487 74.6769 92.2147 74.6769 91.692C74.6769 91.1693 74.5229 90.7727 74.2149 90.502C73.9069 90.222 73.4775 90.082 72.9269 90.082ZM79.6404 99H78.5904V89.2H79.6404V99ZM84.6641 94.884H83.2361V99H82.1861V89.2H84.9861C86.0314 89.2 86.7874 89.4287 87.2541 89.886C87.7301 90.3433 87.9681 91.0573 87.9681 92.028C87.9681 92.9893 87.6788 93.708 87.1001 94.184C86.5214 94.6507 85.7094 94.884 84.6641 94.884ZM84.5101 90.096H83.2361V93.988H84.1601C85.1214 93.988 85.8214 93.8433 86.2601 93.554C86.6988 93.2647 86.9181 92.77 86.9181 92.07C86.9181 91.3607 86.7268 90.8567 86.3441 90.558C85.9614 90.25 85.3501 90.096 84.5101 90.096ZM91.5103 99V90.138H88.7663V89.2H95.2623V90.138H92.5463V99H91.5103Z" fill="black"/>
<path d="M25.473 98.944H24.973V99.3405L25.359 99.4308L25.473 98.944ZM25.473 98.062L25.5552 97.5688L24.973 97.4718V98.062H25.473ZM27.671 97.544L27.2088 97.3531L27.2054 97.3618L27.671 97.544ZM27.937 90.026H28.437V89.526H27.937V90.026ZM25.907 90.026H25.407V90.526H25.907V90.026ZM25.907 89.2V88.7H25.407V89.2H25.907ZM28.987 89.2H29.487V88.7H28.987V89.2ZM28.487 96.046C28.487 97.0211 28.3153 97.6636 28.0475 98.0503C27.8026 98.4038 27.44 98.598 26.873 98.598V99.598C27.7153 99.598 28.4097 99.2835 28.8695 98.6197C29.3063 97.9891 29.487 97.1056 29.487 96.046H28.487ZM26.873 98.598C26.413 98.598 25.9848 98.5503 25.5869 98.4572L25.359 99.4308C25.8385 99.5431 26.3437 99.598 26.873 99.598V98.598ZM25.973 98.944V98.062H24.973V98.944H25.973ZM25.3908 98.5552C25.9086 98.6415 26.3539 98.688 26.719 98.688V97.688C26.4307 97.688 26.0454 97.6505 25.5552 97.5688L25.3908 98.5552ZM26.719 98.688C27.0302 98.688 27.3292 98.6156 27.5871 98.4411C27.8455 98.2664 28.0233 98.0157 28.1366 97.7262L27.2054 97.3618C27.1506 97.5017 27.0858 97.573 27.0268 97.6129C26.9674 97.653 26.8745 97.688 26.719 97.688V98.688ZM28.1331 97.7349C28.3456 97.2205 28.437 96.5684 28.437 95.808H27.437C27.437 96.5036 27.3511 97.0088 27.2089 97.3531L28.1331 97.7349ZM28.437 95.808V90.026H27.437V95.808H28.437ZM27.937 89.526H25.907V90.526H27.937V89.526ZM26.407 90.026V89.2H25.407V90.026H26.407ZM25.907 89.7H28.987V88.7H25.907V89.7ZM28.487 89.2V96.046H29.487V89.2H28.487ZM38.1818 99V99.5H38.8743L38.6564 98.8427L38.1818 99ZM37.0058 99L36.5292 99.151L36.6397 99.5H37.0058V99ZM36.0258 95.906L36.5025 95.755L36.3919 95.406H36.0258V95.906ZM32.5118 95.906V95.406H32.1441L32.0345 95.757L32.5118 95.906ZM31.5458 99V99.5H31.9135L32.0231 99.149L31.5458 99ZM30.4398 99L29.9648 98.8439L29.7492 99.5H30.4398V99ZM33.6598 89.2V88.7H33.2978L33.1848 89.0439L33.6598 89.2ZM34.9338 89.2L35.4084 89.0427L35.2948 88.7H34.9338V89.2ZM35.7878 94.996V95.496H36.4706L36.2645 94.8451L35.7878 94.996ZM34.2898 90.264L34.7665 90.1131L34.292 88.6143L33.8135 90.1118L34.2898 90.264ZM32.7778 94.996L32.3015 94.8438L32.0931 95.496H32.7778V94.996ZM38.1818 98.5H37.0058V99.5H38.1818V98.5ZM37.4825 98.849L36.5025 95.755L35.5492 96.057L36.5292 99.151L37.4825 98.849ZM36.0258 95.406H32.5118V96.406H36.0258V95.406ZM32.0345 95.757L31.0685 98.851L32.0231 99.149L32.9891 96.055L32.0345 95.757ZM31.5458 98.5H30.4398V99.5H31.5458V98.5ZM30.9148 99.1561L34.1348 89.3561L33.1848 89.0439L29.9648 98.8439L30.9148 99.1561ZM33.6598 89.7H34.9338V88.7H33.6598V89.7ZM34.4592 89.3573L37.7072 99.1573L38.6564 98.8427L35.4084 89.0427L34.4592 89.3573ZM36.2645 94.8451L34.7665 90.1131L33.8131 90.4149L35.3111 95.1469L36.2645 94.8451ZM33.8135 90.1118L32.3015 94.8438L33.2541 95.1482L34.7661 90.4162L33.8135 90.1118ZM32.7778 95.496H35.7878V94.496H32.7778V95.496ZM45.2667 89.2L45.7445 89.3474L45.9442 88.7H45.2667V89.2ZM42.2427 99V99.5H42.6117L42.7205 99.1474L42.2427 99ZM40.7727 99L40.2917 99.1367L40.395 99.5H40.7727V99ZM37.9867 89.2V88.7H37.3247L37.5057 89.3367L37.9867 89.2ZM39.1627 89.2L39.6444 89.0661L39.5426 88.7H39.1627V89.2ZM41.5567 97.81L41.075 97.9439L41.5404 99.6179L42.0359 97.9526L41.5567 97.81ZM44.1187 89.2V88.7H43.7458L43.6395 89.0574L44.1187 89.2ZM44.7889 89.0526L41.7649 98.8526L42.7205 99.1474L45.7445 89.3474L44.7889 89.0526ZM42.2427 98.5H40.7727V99.5H42.2427V98.5ZM41.2536 98.8633L38.4676 89.0633L37.5057 89.3367L40.2917 99.1367L41.2536 98.8633ZM37.9867 89.7H39.1627V88.7H37.9867V89.7ZM38.681 89.3339L41.075 97.9439L42.0384 97.6761L39.6444 89.0661L38.681 89.3339ZM42.0359 97.9526L44.5979 89.3426L43.6395 89.0574L41.0775 97.6674L42.0359 97.9526ZM44.1187 89.7H45.2667V88.7H44.1187V89.7ZM52.8107 99V99.5H53.5032L53.2853 98.8427L52.8107 99ZM51.6347 99L51.1581 99.151L51.2686 99.5H51.6347V99ZM50.6547 95.906L51.1314 95.755L51.0208 95.406H50.6547V95.906ZM47.1407 95.906V95.406H46.773L46.6634 95.757L47.1407 95.906ZM46.1747 99V99.5H46.5424L46.652 99.149L46.1747 99ZM45.0687 99L44.5937 98.8439L44.3781 99.5H45.0687V99ZM48.2887 89.2V88.7H47.9267L47.8137 89.0439L48.2887 89.2ZM49.5627 89.2L50.0373 89.0427L49.9238 88.7H49.5627V89.2ZM50.4167 94.996V95.496H51.0995L50.8934 94.8451L50.4167 94.996ZM48.9187 90.264L49.3954 90.1131L48.9209 88.6143L48.4424 90.1118L48.9187 90.264ZM47.4067 94.996L46.9304 94.8438L46.7221 95.496H47.4067V94.996ZM52.8107 98.5H51.6347V99.5H52.8107V98.5ZM52.1114 98.849L51.1314 95.755L50.1781 96.057L51.1581 99.151L52.1114 98.849ZM50.6547 95.406H47.1407V96.406H50.6547V95.406ZM46.6634 95.757L45.6974 98.851L46.652 99.149L47.618 96.055L46.6634 95.757ZM46.1747 98.5H45.0687V99.5H46.1747V98.5ZM45.5437 99.1561L48.7637 89.3561L47.8137 89.0439L44.5937 98.8439L45.5437 99.1561ZM48.2887 89.7H49.5627V88.7H48.2887V89.7ZM49.0881 89.3573L52.3361 99.1573L53.2853 98.8427L50.0373 89.0427L49.0881 89.3573ZM50.8934 94.8451L49.3954 90.1131L48.442 90.4149L49.94 95.1469L50.8934 94.8451ZM48.4424 90.1118L46.9304 94.8438L47.883 95.1482L49.395 90.4162L48.4424 90.1118ZM47.4067 95.496H50.4167V94.496H47.4067V95.496ZM59.1961 89.55L59.6825 89.6661L59.7863 89.2314L59.3658 89.0797L59.1961 89.55ZM58.9721 90.488L58.8315 90.9678L59.3363 91.1158L59.4585 90.6041L58.9721 90.488ZM58.1601 90.25L58.3008 89.7702L58.2893 89.7668L58.2777 89.764L58.1601 90.25ZM55.5141 92.574L55.194 92.9582L55.2005 92.9634L55.5141 92.574ZM56.7321 93.232L56.5657 93.7036L56.5768 93.7072L56.7321 93.232ZM58.1741 93.764L57.9837 94.2265L57.9947 94.2307L58.1741 93.764ZM59.4061 94.646L59.0227 94.967L59.0265 94.9714L59.4061 94.646ZM59.0561 98.314L59.391 98.6854L59.3943 98.6823L59.0561 98.314ZM55.0521 98.86L54.9069 99.3385L54.917 99.3414L55.0521 98.86ZM53.7641 98.314L53.3062 98.1132L53.1309 98.513L53.5034 98.7406L53.7641 98.314ZM54.1141 97.516L54.3237 97.062L53.8609 96.8485L53.6562 97.3152L54.1141 97.516ZM58.2581 97.642L57.9537 97.2453L57.9492 97.2488L58.2581 97.642ZM57.8941 94.898L58.1254 94.4547L58.1235 94.4537L57.8941 94.898ZM56.9281 94.478L56.7512 94.9457L56.7553 94.9472L56.9281 94.478ZM55.8781 94.058L55.6694 94.5123L55.6767 94.5157L55.6841 94.5188L55.8781 94.058ZM54.9261 93.526L54.6394 93.9357L54.6457 93.94L54.9261 93.526ZM54.2261 92.728L53.7838 92.9614L53.7891 92.9708L54.2261 92.728ZM54.6741 89.704L54.3428 89.3295L54.3393 89.3327L54.6741 89.704ZM58.7098 89.4339L58.4858 90.3719L59.4585 90.6041L59.6825 89.6661L58.7098 89.4339ZM59.1128 90.0082L58.3008 89.7702L58.0195 90.7298L58.8315 90.9678L59.1128 90.0082ZM58.2777 89.764C57.6751 89.6182 57.1344 89.54 56.6621 89.54V90.54C57.0299 90.54 57.4878 90.6018 58.0426 90.736L58.2777 89.764ZM56.6621 89.54C56.0478 89.54 55.4937 89.6754 55.0908 90.034C54.6767 90.4024 54.5101 90.9268 54.5101 91.51H55.5101C55.5101 91.1132 55.6189 90.9026 55.7555 90.781C55.9032 90.6496 56.1751 90.54 56.6621 90.54V89.54ZM54.5101 91.51C54.5101 92.0909 54.7465 92.5852 55.194 92.9581L55.8342 92.1899C55.6098 92.0028 55.5101 91.7878 55.5101 91.51H54.5101ZM55.2005 92.9634C55.5873 93.275 56.0452 93.5198 56.5657 93.7035L56.8986 92.7605C56.4671 92.6082 56.1129 92.4143 55.8278 92.1846L55.2005 92.9634ZM56.5768 93.7072C57.0502 93.862 57.5192 94.035 57.9838 94.2263L58.3645 93.3017C57.8771 93.101 57.3848 92.9193 56.8875 92.7568L56.5768 93.7072ZM57.9947 94.2307C58.4002 94.3867 58.7409 94.6303 59.0228 94.967L59.7895 94.325C59.3994 93.8591 58.9187 93.5147 58.3536 93.2973L57.9947 94.2307ZM59.0265 94.9714C59.2716 95.2574 59.4101 95.6347 59.4101 96.144H60.4101C60.4101 95.44 60.2127 94.8186 59.7858 94.3206L59.0265 94.9714ZM59.4101 96.144C59.4101 96.9577 59.1641 97.5361 58.718 97.9457L59.3943 98.6823C60.0868 98.0466 60.4101 97.1783 60.4101 96.144H59.4101ZM58.7213 97.9427C58.2727 98.3471 57.6012 98.584 56.6341 98.584V99.584C57.7578 99.584 58.7009 99.3075 59.391 98.6853L58.7213 97.9427ZM56.6341 98.584C56.1597 98.584 55.6778 98.5163 55.1873 98.3786L54.917 99.3414C55.4905 99.5024 56.0633 99.584 56.6341 99.584V98.584ZM55.1974 98.3816C54.7009 98.2308 54.3138 98.0639 54.0249 97.8874L53.5034 98.7406C53.8865 98.9747 54.3581 99.1718 54.9069 99.3384L55.1974 98.3816ZM54.222 98.5148L54.572 97.7168L53.6562 97.3152L53.3062 98.1132L54.222 98.5148ZM53.9046 97.97C54.8044 98.3853 55.6787 98.604 56.5221 98.604V97.604C55.8535 97.604 55.1225 97.4307 54.3237 97.062L53.9046 97.97ZM56.5221 98.604C57.3427 98.604 58.0508 98.4408 58.5671 98.0352L57.9492 97.2488C57.6815 97.4592 57.2322 97.604 56.5221 97.604V98.604ZM58.5626 98.0387C59.1082 97.6199 59.3601 97.0129 59.3601 96.298H58.3601C58.3601 96.7591 58.2108 97.0481 57.9537 97.2453L58.5626 98.0387ZM59.3601 96.298C59.3601 95.4706 58.8918 94.8546 58.1254 94.4547L57.6629 95.3413C58.1845 95.6134 58.3601 95.9307 58.3601 96.298H59.3601ZM58.1235 94.4537C57.8132 94.2936 57.472 94.1455 57.101 94.0088L56.7553 94.9472C57.0936 95.0718 57.3964 95.2038 57.6648 95.3423L58.1235 94.4537ZM57.1051 94.0104C56.7657 93.8819 56.4214 93.7442 56.0722 93.5972L55.6841 94.5188C56.0442 94.6704 56.3999 94.8127 56.7512 94.9456L57.1051 94.0104ZM56.0869 93.6037C55.7644 93.4555 55.4713 93.2914 55.2066 93.112L54.6457 93.94C54.9597 94.1526 55.3012 94.3432 55.6694 94.5123L56.0869 93.6037ZM55.2129 93.1164C55.0023 92.969 54.8177 92.7632 54.6632 92.4852L53.7891 92.9708C54.0079 93.3648 54.2899 93.691 54.6394 93.9356L55.2129 93.1164ZM54.6683 92.4946C54.5352 92.2424 54.4601 91.9332 54.4601 91.552H53.4601C53.4601 92.0668 53.5624 92.5416 53.7839 92.9614L54.6683 92.4946ZM54.4601 91.552C54.4601 90.8526 54.6636 90.3869 55.009 90.0753L54.3393 89.3327C53.7327 89.8798 53.4601 90.6461 53.4601 91.552H54.4601ZM55.0054 90.0785C55.3779 89.749 55.8982 89.56 56.6201 89.56V88.56C55.7181 88.56 54.941 88.8003 54.3429 89.3295L55.0054 90.0785ZM56.6201 89.56C57.3647 89.56 58.1657 89.7097 59.0264 90.0203L59.3658 89.0797C58.4159 88.7369 57.4996 88.56 56.6201 88.56V89.56ZM62.4691 97.74L62.0755 98.0484L62.079 98.0528L62.4691 97.74ZM62.5391 90.418L62.9212 90.7404L62.9212 90.7404L62.5391 90.418ZM67.9011 89.48L68.3813 89.6194L68.5102 89.1751L68.0773 89.0121L67.9011 89.48ZM67.6491 90.348L67.453 90.808L67.972 91.0291L68.1293 90.4874L67.6491 90.348ZM63.3091 91.062L63.699 91.375L63.701 91.3725L63.3091 91.062ZM63.2531 97.026L62.8409 97.3091L62.8449 97.3147L63.2531 97.026ZM67.9011 97.628L68.3678 97.4485L68.1892 96.9843L67.724 97.1604L67.9011 97.628ZM68.1811 98.356L68.4398 98.7839L68.798 98.5673L68.6478 98.1765L68.1811 98.356ZM65.5491 98.584C64.3385 98.584 63.4669 98.1849 62.8591 97.4272L62.079 98.0528C62.9086 99.0871 64.0903 99.584 65.5491 99.584V98.584ZM62.8627 97.4316C62.2424 96.64 61.9051 95.538 61.9051 94.072H60.9051C60.9051 95.686 61.2771 97.0293 62.0755 98.0484L62.8627 97.4316ZM61.9051 94.072C61.9051 92.6125 62.2624 91.5212 62.9212 90.7404L62.1569 90.0956C61.3037 91.1068 60.9051 92.4515 60.9051 94.072H61.9051ZM62.9212 90.7404C63.567 89.9751 64.4717 89.574 65.7031 89.574V88.574C64.2278 88.574 63.0231 89.0689 62.1569 90.0956L62.9212 90.7404ZM65.7031 89.574C66.3878 89.574 67.0609 89.6978 67.7249 89.9479L68.0773 89.0121C67.3039 88.7208 66.5117 88.574 65.7031 88.574V89.574ZM67.4209 89.3406L67.1689 90.2086L68.1293 90.4874L68.3813 89.6194L67.4209 89.3406ZM67.8451 89.888C67.2003 89.6132 66.4587 89.484 65.6331 89.484V90.484C66.3568 90.484 66.9592 90.5975 67.453 90.808L67.8451 89.888ZM65.6331 89.484C64.5125 89.484 63.5886 89.9039 62.9172 90.7515L63.701 91.3725C64.1682 90.7827 64.7937 90.484 65.6331 90.484V89.484ZM62.9191 90.749C62.256 91.5753 61.9551 92.6798 61.9551 94.002H62.9551C62.9551 92.8229 63.2235 91.9674 63.699 91.375L62.9191 90.749ZM61.9551 94.002C61.9551 95.3124 62.2359 96.4281 62.8409 97.3091L63.6652 96.7429C63.2062 96.0745 62.9551 95.1743 62.9551 94.002H61.9551ZM62.8449 97.3147C63.4827 98.2165 64.3884 98.674 65.5071 98.674V97.674C64.7031 97.674 64.1061 97.3661 63.6613 96.7373L62.8449 97.3147ZM65.5071 98.674C66.2281 98.674 67.0909 98.4694 68.0781 98.0956L67.724 97.1604C66.7886 97.5146 66.0554 97.674 65.5071 97.674V98.674ZM67.4344 97.8075L67.7144 98.5355L68.6478 98.1765L68.3678 97.4485L67.4344 97.8075ZM67.9224 97.9281C67.199 98.3655 66.4113 98.584 65.5491 98.584V99.584C66.5908 99.584 67.5579 99.3171 68.4398 98.7839L67.9224 97.9281ZM71.2049 94.394V93.894H70.7049V94.394H71.2049ZM71.2049 98.986V99.486H71.7049V98.986H71.2049ZM70.1549 98.986H69.6549V99.486H70.1549V98.986ZM70.1549 89.186V88.686H69.6549V89.186H70.1549ZM75.1249 89.844L74.7859 90.2118L74.7936 90.2185L75.1249 89.844ZM75.2649 93.232L74.882 92.9104L74.8782 92.915L75.2649 93.232ZM73.8369 94.044L73.7718 93.5482L73.7273 94.5319L73.8369 94.044ZM74.8029 94.492L74.4408 94.8368L74.4492 94.8457L74.458 94.8541L74.8029 94.492ZM75.4889 95.71L75.0275 95.9028L75.0284 95.9048L75.4889 95.71ZM76.8749 98.986V99.486H77.6293L77.3353 98.7912L76.8749 98.986ZM75.7689 98.986L75.31 99.1847L75.4405 99.486H75.7689V98.986ZM74.4109 95.85L73.9513 96.047L73.952 96.0487L74.4109 95.85ZM73.5569 94.688L73.2884 95.1098L73.2958 95.1145L73.3033 95.119L73.5569 94.688ZM71.2049 90.082V89.582H70.7049V90.082H71.2049ZM71.2049 93.498H70.7049V93.998H71.2049V93.498ZM74.1589 92.994L73.8053 92.6404L73.8053 92.6404L74.1589 92.994ZM74.2149 90.502L73.8785 90.872L73.8848 90.8776L74.2149 90.502ZM72.0729 93.894H71.2049V94.894H72.0729V93.894ZM70.7049 94.394V98.986H71.7049V94.394H70.7049ZM71.2049 98.486H70.1549V99.486H71.2049V98.486ZM70.6549 98.986V89.186H69.6549V98.986H70.6549ZM70.1549 89.686H72.9829V88.686H70.1549V89.686ZM72.9829 89.686C73.8675 89.686 74.4377 89.8907 74.786 90.2117L75.4637 89.4763C74.86 88.92 74.0023 88.686 72.9829 88.686V89.686ZM74.7936 90.2185C75.1467 90.5309 75.3529 90.9956 75.3529 91.692H76.3529C76.3529 90.7831 76.0736 90.0157 75.4561 89.4695L74.7936 90.2185ZM75.3529 91.692C75.3529 92.1237 75.2055 92.5253 74.882 92.9104L75.6477 93.5536C76.1082 93.0054 76.3529 92.3803 76.3529 91.692H75.3529ZM74.8782 92.915C74.5716 93.2889 74.2082 93.491 73.7718 93.5482L73.9019 94.5398C74.6041 94.4477 75.1928 94.1085 75.6515 93.549L74.8782 92.915ZM73.7273 94.5319C74.1506 94.6269 74.356 94.7478 74.4408 94.8368L75.1649 94.1472C74.8764 93.8442 74.4378 93.6665 73.9464 93.5561L73.7273 94.5319ZM74.458 94.8541C74.5691 94.9598 74.7643 95.2728 75.0275 95.9028L75.9502 95.5172C75.6908 94.8965 75.4286 94.3975 75.1477 94.1299L74.458 94.8541ZM75.0284 95.9048L76.4144 99.1808L77.3353 98.7912L75.9493 95.5152L75.0284 95.9048ZM76.8749 98.486H75.7689V99.486H76.8749V98.486ZM76.2277 98.7873L74.8697 95.6513L73.952 96.0487L75.31 99.1847L76.2277 98.7873ZM74.8704 95.653C74.6041 95.0315 74.2657 94.5249 73.8104 94.257L73.3033 95.119C73.4827 95.2245 73.7137 95.4925 73.9513 96.047L74.8704 95.653ZM73.8253 94.2662C73.3935 93.9914 72.7792 93.894 72.0729 93.894V94.894C72.7292 94.894 73.1043 94.9926 73.2884 95.1098L73.8253 94.2662ZM72.9269 89.582H71.2049V90.582H72.9269V89.582ZM70.7049 90.082V93.498H71.7049V90.082H70.7049ZM71.2049 93.998H72.7869V92.998H71.2049V93.998ZM72.7869 93.998C73.4674 93.998 74.0629 93.797 74.5124 93.3476L73.8053 92.6404C73.5828 92.863 73.2637 92.998 72.7869 92.998V93.998ZM74.5124 93.3476C74.9586 92.9014 75.1769 92.337 75.1769 91.692H74.1769C74.1769 92.0924 74.0498 92.3959 73.8053 92.6404L74.5124 93.3476ZM75.1769 91.692C75.1769 91.0679 74.9891 90.5168 74.5449 90.1264L73.8848 90.8776C74.0566 91.0286 74.1769 91.2708 74.1769 91.692H75.1769ZM74.5512 90.132C74.1247 89.7443 73.5609 89.582 72.9269 89.582V90.582C73.3942 90.582 73.689 90.6996 73.8785 90.872L74.5512 90.132ZM79.6404 99V99.5H80.1404V99H79.6404ZM78.5904 99H78.0904V99.5H78.5904V99ZM78.5904 89.2V88.7H78.0904V89.2H78.5904ZM79.6404 89.2H80.1404V88.7H79.6404V89.2ZM79.6404 98.5H78.5904V99.5H79.6404V98.5ZM79.0904 99V89.2H78.0904V99H79.0904ZM78.5904 89.7H79.6404V88.7H78.5904V89.7ZM79.1404 89.2V99H80.1404V89.2H79.1404ZM83.2361 94.884V94.384H82.7361V94.884H83.2361ZM83.2361 99V99.5H83.7361V99H83.2361ZM82.1861 99H81.6861V99.5H82.1861V99ZM82.1861 89.2V88.7H81.6861V89.2H82.1861ZM87.2541 89.886L86.9041 90.2431L86.9077 90.2466L87.2541 89.886ZM87.1001 94.184L87.414 94.5732L87.4177 94.5701L87.1001 94.184ZM83.2361 90.096V89.596H82.7361V90.096H83.2361ZM83.2361 93.988H82.7361V94.488H83.2361V93.988ZM86.2601 93.554L85.9848 93.1366L85.9848 93.1366L86.2601 93.554ZM86.3441 90.558L86.0306 90.9475L86.0365 90.9522L86.3441 90.558ZM84.6641 94.384H83.2361V95.384H84.6641V94.384ZM82.7361 94.884V99H83.7361V94.884H82.7361ZM83.2361 98.5H82.1861V99.5H83.2361V98.5ZM82.6861 99V89.2H81.6861V99H82.6861ZM82.1861 89.7H84.9861V88.7H82.1861V89.7ZM84.9861 89.7C85.9759 89.7 86.5736 89.9192 86.9041 90.2431L87.6041 89.5289C87.0013 88.9381 86.087 88.7 84.9861 88.7V89.7ZM86.9077 90.2466C87.2473 90.5729 87.4681 91.1292 87.4681 92.028H88.4681C88.4681 90.9854 88.2129 90.1138 87.6005 89.5254L86.9077 90.2466ZM87.4681 92.028C87.4681 92.8856 87.2145 93.4425 86.7825 93.7979L87.4177 94.5701C88.1431 93.9735 88.4681 93.0931 88.4681 92.028H87.4681ZM86.7862 93.7948C86.3264 94.1656 85.6408 94.384 84.6641 94.384V95.384C85.7781 95.384 86.7164 95.1357 87.414 94.5732L86.7862 93.7948ZM84.5101 89.596H83.2361V90.596H84.5101V89.596ZM82.7361 90.096V93.988H83.7361V90.096H82.7361ZM83.2361 94.488H84.1601V93.488H83.2361V94.488ZM84.1601 94.488C85.1494 94.488 85.9716 94.3433 86.5354 93.9714L85.9848 93.1366C85.6713 93.3434 85.0935 93.488 84.1601 93.488V94.488ZM86.5354 93.9714C87.1592 93.5599 87.4181 92.8761 87.4181 92.07H86.4181C86.4181 92.6639 86.2383 92.9694 85.9848 93.1366L86.5354 93.9714ZM87.4181 92.07C87.4181 91.2806 87.2041 90.5949 86.6517 90.1638L86.0365 90.9522C86.2495 91.1184 86.4181 91.4408 86.4181 92.07H87.4181ZM86.6576 90.1685C86.1421 89.7536 85.3907 89.596 84.5101 89.596V90.596C85.3096 90.596 85.7808 90.7464 86.0306 90.9475L86.6576 90.1685ZM91.5103 99H91.0103V99.5H91.5103V99ZM91.5103 90.138H92.0103V89.638H91.5103V90.138ZM88.7663 90.138H88.2663V90.638H88.7663V90.138ZM88.7663 89.2V88.7H88.2663V89.2H88.7663ZM95.2623 89.2H95.7623V88.7H95.2623V89.2ZM95.2623 90.138V90.638H95.7623V90.138H95.2623ZM92.5463 90.138V89.638H92.0463V90.138H92.5463ZM92.5463 99V99.5H93.0463V99H92.5463ZM92.0103 99V90.138H91.0103V99H92.0103ZM91.5103 89.638H88.7663V90.638H91.5103V89.638ZM89.2663 90.138V89.2H88.2663V90.138H89.2663ZM88.7663 89.7H95.2623V88.7H88.7663V89.7ZM94.7623 89.2V90.138H95.7623V89.2H94.7623ZM95.2623 89.638H92.5463V90.638H95.2623V89.638ZM92.0463 90.138V99H93.0463V90.138H92.0463ZM92.5463 98.5H91.5103V99.5H92.5463V98.5Z" fill="black"/>
<path d="M85.5312 42C85.5312 55.6654 74.2791 66.75 60.3906 66.75C46.5022 66.75 35.25 55.6654 35.25 42C35.25 28.3346 46.5022 17.25 60.3906 17.25C74.2791 17.25 85.5312 28.3346 85.5312 42Z" fill="#F0DB4F" stroke="black" stroke-width="0.5"/>
<path d="M73.395 33.1378L72.5194 36.1554C71.6962 35.8034 70.3451 35.35 68.6172 35.35C67.6161 35.35 66.8484 35.5833 66.324 35.967C65.7958 36.3536 65.5234 36.8883 65.5234 37.45C65.5234 37.8004 65.5988 38.1136 65.7643 38.3988C65.9282 38.6816 66.1722 38.9223 66.4872 39.1424C67.1087 39.5767 68.0543 39.9618 69.3436 40.4347L69.3446 40.4351C71.0502 41.0525 72.2766 41.7963 73.0762 42.7029C73.8699 43.6028 74.2578 44.6797 74.2578 46C74.2578 47.5576 73.6636 48.9851 72.4236 50.0274C71.1799 51.0727 69.2626 51.75 66.5859 51.75C64.4979 51.75 62.417 51.216 61.2914 50.6682L62.0805 47.5602C63.2837 48.1254 65.0584 48.65 66.8398 48.65C67.8856 48.65 68.7184 48.4319 69.2965 48.0153C69.8847 47.5916 70.1875 46.9773 70.1875 46.25C70.1875 45.5685 69.92 45.0241 69.3391 44.5554C68.7756 44.1009 67.9144 43.7147 66.7182 43.3136C63.4956 42.1729 61.4531 40.4324 61.4531 37.75C61.4531 36.2038 62.1273 34.837 63.3588 33.8514C64.5937 32.8632 66.4009 32.25 68.668 32.25C70.7448 32.25 72.2768 32.6447 73.395 33.1378Z" fill="#323330" stroke="black" stroke-width="0.5"/>
<path d="M47.957 51.3767L48.3938 48.3232C48.9847 48.4866 49.7098 48.6 50.4727 48.6C51.4454 48.6 52.2914 48.38 52.8859 47.7241C53.4743 47.075 53.7695 46.0492 53.7695 44.55L53.7695 44.549L53.7198 32.55H57.6367V44.55C57.6367 47.263 56.9729 49.0482 55.8334 50.1584C54.6927 51.2697 53.0292 51.75 50.9297 51.75C49.9571 51.75 48.782 51.6227 47.957 51.3767Z" fill="#323330" stroke="black" stroke-width="0.5"/>
</svg>
