<svg width="122" height="122" viewBox="0 0 122 122" fill="none" xmlns="http://www.w3.org/2000/svg">
<circle cx="61" cy="61" r="60.75" fill="white" stroke="black" stroke-width="0.5"/>
<path d="M39.8003 92.078H38.6843V97.982H37.3343V85.382H40.9703C42.1943 85.382 43.1123 85.664 43.7243 86.228C44.3483 86.78 44.6603 87.572 44.6603 88.604C44.6603 89.324 44.4083 89.984 43.9043 90.584C43.4123 91.184 42.8003 91.532 42.0683 91.628C42.6563 91.76 43.0703 91.952 43.3103 92.204C43.5623 92.444 43.8563 92.966 44.1923 93.77L45.9743 97.982H44.5523L42.8063 93.95C42.4823 93.194 42.1163 92.696 41.7083 92.456C41.3123 92.204 40.6763 92.078 39.8003 92.078ZM40.8983 86.534H38.6843V90.926H40.7183C41.4623 90.926 42.0503 90.71 42.4823 90.278C42.9263 89.834 43.1483 89.276 43.1483 88.604C43.1483 87.932 42.9503 87.422 42.5543 87.074C42.1583 86.714 41.6063 86.534 40.8983 86.534ZM54.966 98H48.18V85.4H54.966V86.57H49.53V90.566H54.516V91.772H49.53V96.83H54.966V98ZM66.4859 98H64.9739L63.7139 94.022H59.1959L57.9539 98H56.5319L60.6719 85.4H62.3099L66.4859 98ZM63.4079 92.852L61.4819 86.768L59.5379 92.852H63.4079ZM72.9497 98.108C71.2337 98.108 69.9137 97.532 68.9897 96.38C68.0777 95.216 67.6217 93.644 67.6217 91.664C67.6217 89.684 68.1077 88.118 69.0797 86.966C70.0517 85.814 71.4077 85.238 73.1477 85.238C74.1077 85.238 75.0497 85.412 75.9737 85.76L75.6497 86.876C74.9177 86.564 74.0537 86.408 73.0577 86.408C71.7977 86.408 70.8017 86.87 70.0697 87.794C69.3377 88.706 68.9717 89.966 68.9717 91.574C68.9717 93.17 69.3137 94.466 69.9977 95.462C70.6937 96.446 71.6597 96.938 72.8957 96.938C73.7117 96.938 74.7377 96.704 75.9737 96.236L76.3337 97.172C75.3017 97.796 74.1737 98.108 72.9497 98.108ZM81.1214 98V86.606H77.5934V85.4H85.9454V86.606H82.4534V98H81.1214Z" fill="black"/>
<path d="M60.9978 49.088C63.8231 49.088 66.1133 46.7977 66.1133 43.9725C66.1133 41.1473 63.8231 38.857 60.9978 38.857C58.1726 38.857 55.8823 41.1473 55.8823 43.9725C55.8823 46.7977 58.1726 49.088 60.9978 49.088Z" fill="#61DAFB"/>
<path d="M60.9978 62.7844C65.0132 66.6898 68.9736 69 72.1639 69C73.209 69 74.1991 68.78 75.0242 68.2849C77.8845 66.6348 78.9296 62.5093 77.9395 56.6238C77.7745 55.5787 77.5545 54.5336 77.2794 53.4334C78.3795 53.1034 79.3696 52.7734 80.3597 52.4433C85.9153 50.2981 88.9956 47.3278 88.9956 44.0825C88.9956 40.7822 85.9153 37.8119 80.3597 35.7217C79.3696 35.3366 78.3795 35.0066 77.2794 34.7316C77.5545 33.6315 77.7745 32.5864 77.9395 31.5413C78.8746 25.5457 77.8295 21.3652 74.9692 19.7151C74.1441 19.22 73.154 19 72.1089 19C68.9736 19 64.9582 21.3102 60.9428 25.2156C56.9824 21.3102 53.022 19 49.8317 19C48.7866 19 47.7965 19.22 46.9714 19.7151C44.1111 21.3652 43.066 25.4906 44.0561 31.3762C44.2211 32.4213 44.4411 33.4664 44.7162 34.5666C43.6161 34.8966 42.626 35.2266 41.6359 35.5567C36.0803 37.7019 33 40.6722 33 43.9175C33 47.2178 36.0803 50.1881 41.6359 52.2783C42.626 52.6634 43.6161 52.9934 44.7162 53.2684C44.4411 54.3685 44.2211 55.4136 44.0561 56.4587C43.121 62.3443 44.1661 66.5247 46.9714 68.1199C47.7965 68.615 48.7866 68.835 49.8317 68.835C53.022 68.945 56.9824 66.6348 60.9978 62.7844ZM57.9175 55.3586C58.9076 55.4136 59.9527 55.4136 60.9978 55.4136C62.0429 55.4136 63.088 55.4136 64.0781 55.3586C63.088 56.6788 62.0429 57.8889 60.9978 59.044C59.9527 57.8889 58.9076 56.6788 57.9175 55.3586ZM51.0968 49.6931C51.6469 50.6282 52.1419 51.5082 52.747 52.3883C51.0418 52.1683 49.4466 51.8933 47.9065 51.5633C48.4015 50.0781 48.9516 48.538 49.6117 46.9978C50.0517 47.8779 50.5468 48.813 51.0968 49.6931ZM47.9065 36.4367C49.4466 36.1067 51.0418 35.8317 52.747 35.6117C52.1969 36.4917 51.6469 37.3718 51.0968 38.3069C50.5468 39.242 50.0517 40.1221 49.6117 41.0572C48.8966 39.462 48.3465 37.9219 47.9065 36.4367ZM50.9318 43.9725C51.6469 42.4873 52.4169 41.0022 53.297 39.5171C54.1221 38.0869 55.0572 36.6568 55.9923 35.2266C57.6425 35.1166 59.2926 35.0616 60.9978 35.0616C62.758 35.0616 64.4081 35.1166 66.0033 35.2266C66.9934 36.6568 67.8735 38.0869 68.6986 39.5171C69.5787 41.0022 70.3487 42.4873 71.0638 43.9725C70.3487 45.4576 69.5787 46.9428 68.6986 48.4279C67.8735 49.8581 66.9384 51.2882 66.0033 52.7184C64.3531 52.8284 62.703 52.8834 60.9978 52.8834C59.2376 52.8834 57.5875 52.8284 55.9923 52.7184C55.0022 51.2882 54.1221 49.8581 53.297 48.4279C52.4169 46.9428 51.6469 45.4576 50.9318 43.9725ZM72.4389 41.0022L70.9538 38.2519C70.4037 37.3168 69.9087 36.4367 69.3036 35.5567C71.0088 35.7767 72.604 36.0517 74.1441 36.3817C73.6491 37.9219 73.099 39.462 72.4389 41.0022ZM72.4389 46.9428C73.099 48.4829 73.6491 50.0231 74.1441 51.5083C72.604 51.8383 71.0088 52.1133 69.3036 52.3333C69.8537 51.4532 70.4037 50.5732 70.9538 49.6381C71.4488 48.813 71.9439 47.8779 72.4389 46.9428ZM73.7041 66.0297C73.264 66.3047 72.714 66.4147 72.1089 66.4147C69.4136 66.4147 66.0583 64.2145 62.758 60.9142C64.3531 59.209 65.8933 57.2838 67.4334 55.1386C70.0187 54.9186 72.4939 54.5336 74.8042 53.9835C75.0792 54.9736 75.2442 55.9637 75.4092 56.9538C76.1793 61.6293 75.5743 64.9846 73.7041 66.0297ZM76.5644 37.0418C82.725 38.802 86.4103 41.4972 86.4103 43.9725C86.4103 46.1177 83.8801 48.2629 79.4246 49.9681C78.5446 50.2981 77.5545 50.6282 76.5644 50.9032C75.8493 48.648 74.9692 46.3377 73.8691 43.9725C74.9692 41.6073 75.9043 39.297 76.5644 37.0418ZM72.1639 21.5303C72.769 21.5303 73.264 21.6403 73.7591 21.9153C75.5743 22.9604 76.2343 26.2607 75.4643 30.9912C75.2992 31.9263 75.0792 32.9164 74.8592 33.9615C72.549 33.4664 70.0737 33.0814 67.4885 32.8064C66.0033 30.6612 64.4081 28.736 62.813 27.0308C66.1133 23.7855 69.4687 21.5303 72.1639 21.5303ZM64.0781 32.5864C63.088 32.5314 62.0429 32.5314 60.9978 32.5314C59.9527 32.5314 58.9076 32.5314 57.9175 32.5864C58.9076 31.2662 59.9527 30.0561 60.9978 28.901C62.0429 30.0561 63.088 31.3212 64.0781 32.5864ZM48.2915 21.9153C48.7316 21.6403 49.2816 21.5303 49.8867 21.5303C52.582 21.5303 55.9373 23.7305 59.2376 27.0308C57.6425 28.736 56.1023 30.6612 54.5622 32.8064C51.9769 33.0264 49.5017 33.4114 47.1914 33.9615C46.9164 32.9714 46.7514 31.9813 46.5864 30.9912C45.8163 26.3157 46.4213 23.0154 48.2915 21.9153ZM45.4312 50.9032C39.2706 49.143 35.5853 46.4477 35.5853 43.9725C35.5853 41.8273 38.1155 39.6821 42.571 37.9769C43.451 37.6469 44.4411 37.3168 45.4312 37.0418C46.1463 39.297 47.0264 41.6073 48.1265 43.9725C47.0264 46.3377 46.0913 48.703 45.4312 50.9032ZM46.5864 56.9538C46.7514 56.0187 46.9714 55.0286 47.1914 53.9835C49.5017 54.4785 51.9769 54.8636 54.5622 55.1386C56.0473 57.2838 57.6425 59.209 59.2376 60.9142C55.9373 64.1595 52.582 66.4147 49.8867 66.4147C49.2816 66.4147 48.7866 66.3047 48.2915 66.0297C46.4213 64.9846 45.8163 61.6293 46.5864 56.9538Z" fill="#61DAFB"/>
</svg>
