<svg width="122" height="122" viewBox="0 0 122 122" fill="none" xmlns="http://www.w3.org/2000/svg">
<circle cx="61" cy="61" r="60.75" fill="white" stroke="black" stroke-width="0.5"/>
<path d="M48.891 87.85L48.603 89.056L47.559 88.75C46.815 88.57 46.173 88.48 45.633 88.48C44.217 88.48 43.509 89.11 43.509 90.37C43.509 90.922 43.725 91.378 44.157 91.738C44.589 92.086 45.111 92.368 45.723 92.584C46.347 92.788 46.965 93.016 47.577 93.268C48.201 93.508 48.729 93.886 49.161 94.402C49.593 94.906 49.809 95.548 49.809 96.328C49.809 97.516 49.443 98.446 48.711 99.118C47.979 99.778 46.941 100.108 45.597 100.108C44.925 100.108 44.247 100.012 43.563 99.82C42.891 99.616 42.339 99.382 41.907 99.118L42.357 98.092C43.449 98.596 44.481 98.848 45.453 98.848C46.437 98.848 47.181 98.65 47.685 98.254C48.201 97.858 48.459 97.282 48.459 96.526C48.459 95.758 48.045 95.158 47.217 94.726C46.845 94.534 46.431 94.354 45.975 94.186C45.531 94.018 45.081 93.838 44.625 93.646C44.181 93.442 43.773 93.214 43.401 92.962C43.041 92.71 42.741 92.368 42.501 91.936C42.273 91.504 42.159 91 42.159 90.424C42.159 89.392 42.465 88.6 43.077 88.048C43.701 87.496 44.535 87.22 45.579 87.22C46.623 87.22 47.727 87.43 48.891 87.85ZM61.0191 100H59.5071L58.2471 96.022H53.7291L52.4871 100H51.0651L55.2051 87.4H56.8431L61.0191 100ZM57.9411 94.852L56.0151 88.768L54.0711 94.852H57.9411ZM69.2289 87.85L68.9409 89.056L67.8969 88.75C67.1529 88.57 66.5109 88.48 65.9709 88.48C64.5549 88.48 63.8469 89.11 63.8469 90.37C63.8469 90.922 64.0629 91.378 64.4949 91.738C64.9269 92.086 65.4489 92.368 66.0609 92.584C66.6849 92.788 67.3029 93.016 67.9149 93.268C68.5389 93.508 69.0669 93.886 69.4989 94.402C69.9309 94.906 70.1469 95.548 70.1469 96.328C70.1469 97.516 69.7809 98.446 69.0489 99.118C68.3169 99.778 67.2789 100.108 65.9349 100.108C65.2629 100.108 64.5849 100.012 63.9009 99.82C63.2289 99.616 62.6769 99.382 62.2449 99.118L62.6949 98.092C63.7869 98.596 64.8189 98.848 65.7909 98.848C66.7749 98.848 67.5189 98.65 68.0229 98.254C68.5389 97.858 68.7969 97.282 68.7969 96.526C68.7969 95.758 68.3829 95.158 67.5549 94.726C67.1829 94.534 66.7689 94.354 66.3129 94.186C65.8689 94.018 65.4189 93.838 64.9629 93.646C64.5189 93.442 64.1109 93.214 63.7389 92.962C63.3789 92.71 63.0789 92.368 62.8389 91.936C62.6109 91.504 62.4969 91 62.4969 90.424C62.4969 89.392 62.8029 88.6 63.4149 88.048C64.0389 87.496 64.8729 87.22 65.9169 87.22C66.9609 87.22 68.0649 87.43 69.2289 87.85ZM79.1429 87.85L78.8549 89.056L77.8109 88.75C77.0669 88.57 76.4249 88.48 75.8849 88.48C74.4689 88.48 73.7609 89.11 73.7609 90.37C73.7609 90.922 73.9769 91.378 74.4089 91.738C74.8409 92.086 75.3629 92.368 75.9749 92.584C76.5989 92.788 77.2169 93.016 77.8289 93.268C78.4529 93.508 78.9809 93.886 79.4129 94.402C79.8449 94.906 80.0609 95.548 80.0609 96.328C80.0609 97.516 79.6949 98.446 78.9629 99.118C78.2309 99.778 77.1929 100.108 75.8489 100.108C75.1769 100.108 74.4989 100.012 73.8149 99.82C73.1429 99.616 72.5909 99.382 72.1589 99.118L72.6089 98.092C73.7009 98.596 74.7329 98.848 75.7049 98.848C76.6889 98.848 77.4329 98.65 77.9369 98.254C78.4529 97.858 78.7109 97.282 78.7109 96.526C78.7109 95.758 78.2969 95.158 77.4689 94.726C77.0969 94.534 76.6829 94.354 76.2269 94.186C75.7829 94.018 75.3329 93.838 74.8769 93.646C74.4329 93.442 74.0249 93.214 73.6529 92.962C73.2929 92.71 72.9929 92.368 72.7529 91.936C72.5249 91.504 72.4109 91 72.4109 90.424C72.4109 89.392 72.7169 88.6 73.3289 88.048C73.9529 87.496 74.7869 87.22 75.8309 87.22C76.8749 87.22 77.9789 87.43 79.1429 87.85Z" fill="black"/>
<path d="M90.4041 47.7388C88.0709 47.7491 86.0503 48.3117 84.363 49.145C83.7484 47.9052 83.1129 46.8221 83.0087 46.0098C82.884 45.0617 82.7483 44.4995 82.8943 43.3746C83.0403 42.2494 83.6962 40.6558 83.6859 40.5414C83.6756 40.4269 83.5401 39.8539 82.1965 39.8434C80.8529 39.8332 79.6969 40.1038 79.5613 40.4579C79.4257 40.812 79.1656 41.6142 79.0093 42.4474C78.7697 43.6661 76.3218 48.02 74.9365 50.2906C74.4783 49.4055 74.093 48.6241 74.0095 47.9991C73.8845 47.0511 73.7491 46.4888 73.895 45.364C74.0408 44.2388 74.6969 42.6452 74.6864 42.5308C74.676 42.4163 74.5406 41.8433 73.1971 41.8328C71.8534 41.8225 70.6975 42.0932 70.5618 42.4474C70.4264 42.8014 70.2806 43.6348 70.0098 44.4371C69.7392 45.2387 66.4788 52.4882 65.6248 54.3736C65.1871 55.3316 64.8124 56.1025 64.5415 56.6235C64.5 56.7067 64.4687 56.7589 64.4478 56.8006C64.479 56.7486 64.5 56.6963 64.5 56.7174C64.2709 57.1651 64.1353 57.4151 64.1353 57.4151V57.4254C63.9582 57.7587 63.7603 58.0606 63.6667 58.0606C63.6041 58.0606 63.4688 57.1859 63.698 55.988C64.1874 53.4674 65.3435 49.5513 65.3331 49.4157C65.3227 49.3428 65.5517 48.6658 64.5727 48.3011C63.6249 47.9574 63.2811 48.5304 63.1979 48.5304C63.1147 48.5304 63.0521 48.7389 63.0521 48.7389C63.0521 48.7389 64.1042 44.3225 61.0314 44.3225C59.1149 44.3225 56.4486 46.4267 55.1363 48.3327C54.3133 48.7806 52.5321 49.7492 50.6574 50.7803C49.9387 51.1762 49.1991 51.5822 48.5013 51.9678C48.4493 51.9154 48.4075 51.8634 48.3555 51.8114C44.6266 47.8327 37.7417 45.0204 38.0335 39.6769C38.1376 37.7291 38.8147 32.6152 51.272 26.4073C61.4796 21.3244 69.6454 22.7201 71.0518 25.824C73.0722 30.2508 66.6873 38.4897 56.0841 39.6769C52.0427 40.1248 49.9181 38.5625 49.3868 37.9793C48.8347 37.3648 48.7513 37.3334 48.543 37.448C48.1992 37.6355 48.4181 38.1772 48.543 38.5C48.8556 39.3228 50.1574 40.781 52.3761 41.5102C54.3236 42.1455 59.063 42.4998 64.7915 40.2811C71.2285 37.802 76.2386 30.8963 74.7699 25.1157C73.2702 19.2413 63.5314 17.3143 54.3135 20.5848C48.8244 22.5326 42.8874 25.5949 38.6168 29.584C33.5444 34.3338 32.732 38.4687 33.0651 40.1979C34.2526 46.3326 42.7101 50.3324 46.0953 53.2904C45.9286 53.3841 45.7723 53.4675 45.6267 53.5508C43.9289 54.3944 37.4815 57.7691 35.867 61.3317C34.0445 65.3729 36.169 68.2683 37.5647 68.6643C41.9185 69.8724 46.3765 67.6956 48.7722 64.1228C51.1676 60.5504 50.8761 55.8841 49.7721 53.7592C49.7616 53.728 49.7408 53.7074 49.7305 53.6758C50.1679 53.4156 50.6156 53.1551 51.0637 52.8948C51.9281 52.3844 52.7719 51.9154 53.5113 51.5096C53.0945 52.6346 52.7926 53.988 52.6363 55.9466C52.4489 58.2379 53.3968 61.2065 54.6259 62.3731C55.1673 62.8835 55.8235 62.894 56.2298 62.894C57.6672 62.894 58.3128 61.7064 59.0315 60.2899C59.9169 58.5606 60.6981 56.5503 60.6981 56.5503C60.6981 56.5503 59.7191 61.9878 62.3958 61.9878C63.3749 61.9878 64.3542 60.7274 64.7914 60.0816V60.0919C64.7914 60.0919 64.8124 60.0504 64.8645 59.9672C64.9685 59.8108 65.0206 59.717 65.0206 59.717V59.6856C65.4163 59.0086 66.281 57.4566 67.5827 54.8945C69.2703 51.582 70.8845 47.4469 70.8845 47.4469C70.8845 47.4469 71.0303 48.4575 71.5306 50.1344C71.8221 51.1238 72.4366 52.2071 72.9261 53.2592C72.5305 53.8008 72.2907 54.1133 72.2907 54.1133C72.2907 54.1133 72.2907 54.1236 72.3009 54.134C71.9885 54.5509 71.6345 54.9988 71.27 55.4363C69.9366 57.0194 68.3534 58.8319 68.1453 59.3526C67.8951 59.9672 67.9577 60.4251 68.4369 60.7796C68.7909 61.0505 69.416 61.0919 70.072 61.04C71.2699 60.9564 72.1136 60.665 72.5198 60.4772C73.1654 60.2484 73.9156 59.8836 74.6238 59.3733C75.9258 58.4153 76.7176 57.0404 76.6444 55.228C76.6028 54.2281 76.2797 53.228 75.8839 52.2909C75.9986 52.124 76.1237 51.9468 76.2382 51.7701C78.3008 48.7594 79.8943 45.4581 79.8943 45.4581C79.8943 45.4581 80.0401 46.4681 80.5399 48.1451C80.79 48.9889 81.2795 49.9159 81.7273 50.8219C79.7899 52.3948 78.5923 54.2178 78.1755 55.4153C77.4047 57.634 78.0088 58.6336 79.1441 58.8632C79.6545 58.9673 80.3837 58.7275 80.9254 58.4984C81.6023 58.2692 82.4148 57.9046 83.1751 57.3422C84.4771 56.3842 85.7375 55.0403 85.6543 53.2176C85.6228 52.3947 85.3938 51.5719 85.0917 50.7803C86.7268 50.0931 88.852 49.7178 91.56 50.0304C97.3616 50.7074 98.4967 54.332 98.278 55.8422C98.0596 57.3631 96.8409 58.1964 96.4346 58.4463C96.0281 58.6964 95.9033 58.7902 95.9348 58.9776C95.9867 59.2484 96.1741 59.2381 96.5178 59.1753C96.9972 59.0921 99.5593 57.9462 99.6736 55.1444C99.8406 51.6029 96.4349 47.7076 90.4041 47.7388ZM45.6891 62.8104C43.7728 64.904 41.0855 65.6956 39.9294 65.029C38.6899 64.3106 39.1794 61.2273 41.5438 58.9982C42.9812 57.6443 44.8352 56.3945 46.0643 55.6237C46.3455 55.4572 46.7518 55.2071 47.2518 54.905C47.3351 54.8533 47.3767 54.8323 47.3767 54.8323C47.4704 54.7695 47.5746 54.7176 47.6788 54.655C48.543 57.8214 47.7098 60.6127 45.6891 62.8104ZM59.688 53.2904C59.0214 54.9255 57.6152 59.092 56.7614 58.8732C56.0322 58.6857 55.5842 55.5089 56.6155 52.3844C57.1362 50.8115 58.2402 48.9367 58.8966 48.2077C59.9484 47.0306 61.1046 46.6555 61.3755 47.1243C61.7399 47.7388 60.1045 52.2697 59.688 53.2904ZM71.2494 58.811C70.9683 58.9567 70.7078 59.0504 70.5829 58.9775C70.4892 58.9254 70.6975 58.7274 70.6975 58.7274C70.6975 58.7274 72.1451 57.1755 72.7181 56.4669C73.0513 56.0505 73.4366 55.5608 73.8534 55.0194C73.8534 55.0712 73.8635 55.1236 73.8635 55.1858C73.8535 57.0505 72.062 58.3111 71.2494 58.811ZM80.1655 56.7798C79.9572 56.6339 79.9882 56.1444 80.6862 54.6235C80.9571 54.0298 81.5822 53.03 82.6651 52.0717C82.7902 52.4674 82.863 52.8423 82.863 53.1964C82.8524 55.5401 81.1757 56.4151 80.1655 56.7798Z" fill="#CF649A"/>
</svg>
