<svg width="122" height="122" viewBox="0 0 122 122" fill="none" xmlns="http://www.w3.org/2000/svg">
<circle cx="61" cy="61" r="60.75" fill="white" stroke="black" stroke-width="0.5"/>
<path d="M85.9854 19H36.0146C36.0066 19 36 19.0066 36 19.0146V68.9854C36 68.9934 36.0066 69 36.0146 69H85.9854C85.9934 69 86 68.9934 86 68.9854V19.0146C86 19.0066 85.9934 19 85.9854 19Z" fill="#3178C6"/>
<path d="M58.7539 46.7344H65.0039V42.7305H47.5234V46.7344H53.7734V64.6055H58.7539V46.7344ZM66.957 63.6289C67.748 64.0391 68.7148 64.3418 69.7891 64.5469C70.8633 64.752 72.0352 64.8496 73.207 64.8496C74.3789 64.8496 75.4531 64.7422 76.5273 64.5176C77.6016 64.293 78.4805 63.9219 79.2617 63.4434C80.0527 62.9258 80.7266 62.2715 81.1172 61.3926C81.5078 60.5137 81.8105 59.5371 81.8105 58.2676C81.8105 57.3789 81.6738 56.6074 81.4102 55.9238C81.1465 55.2402 80.7656 54.6543 80.2383 54.166C79.7402 53.6484 79.1641 53.1895 78.4805 52.7988C77.7969 52.4082 77.0156 51.998 76.1367 51.627C75.4922 51.3633 74.9648 51.1094 74.3789 50.8555C73.8711 50.6016 73.4316 50.3477 73.1094 50.0937C72.748 49.8301 72.4746 49.5566 72.2793 49.2734C72.084 48.9805 71.9863 48.6582 71.9863 48.2969C71.9863 47.9648 72.0732 47.6621 72.25 47.3887C72.4268 47.1152 72.6699 46.8906 72.9824 46.6953C73.2949 46.5 73.6855 46.3535 74.1543 46.2461C74.6133 46.1387 75.1211 46.0898 75.7168 46.0898C76.127 46.0898 76.5566 46.1201 76.9863 46.1816C77.4355 46.2432 77.8945 46.3379 78.3535 46.4648C78.8125 46.5918 79.2617 46.748 79.7207 46.9434C80.1504 47.1387 80.5508 47.3633 80.8926 47.6172V43.0273C80.1504 42.7441 79.3301 42.5293 78.4512 42.3926C77.5723 42.2559 76.5957 42.1875 75.4238 42.1875C74.252 42.1875 73.1777 42.3145 72.1035 42.5586C71.0293 42.8027 70.1504 43.1934 69.3691 43.7305C68.5781 44.2578 68.002 44.9023 67.5137 45.7812C67.0547 46.6016 66.8301 47.5391 66.8301 48.7109C66.8301 50.1758 67.25 51.4453 68.0996 52.4219C68.9395 53.4961 70.248 54.2773 71.9082 55.0586C72.582 55.332 73.1777 55.6055 73.7637 55.8691C74.3496 56.1328 74.8379 56.4062 75.2285 56.6895C75.6484 56.9727 75.9805 57.2852 76.2051 57.6172C76.4492 57.9492 76.5762 58.3398 76.5762 58.7891C76.5762 59.1016 76.5 59.3945 76.3516 59.668C76.2031 59.9414 75.9707 60.1758 75.6582 60.3711C75.3457 60.5664 74.9648 60.7227 74.4863 60.8398C74.0273 60.9473 73.5098 61.0059 72.8262 61.0059C71.752 61.0059 70.6777 60.8203 69.7012 60.4492C68.627 60.0781 67.6504 59.5215 66.957 58.9414V63.6289Z" fill="white"/>
<path d="M30.1527 102V93.771H27.6047V92.9H33.6367V93.771H31.1147V102H30.1527ZM40.9025 92.9L37.9125 97.905V102H36.9375V97.905L34.0645 92.9H35.1435L37.4445 97.112L39.8495 92.9H40.9025ZM44.5524 98.178H43.2264V102H42.2514V92.9H44.8514C45.822 92.9 46.524 93.1123 46.9574 93.537C47.3994 93.9617 47.6204 94.6247 47.6204 95.526C47.6204 96.4187 47.3517 97.086 46.8144 97.528C46.277 97.9613 45.523 98.178 44.5524 98.178ZM44.4094 93.732H43.2264V97.346H44.0844C44.977 97.346 45.627 97.2117 46.0344 96.943C46.4417 96.6743 46.6454 96.215 46.6454 95.565C46.6454 94.9063 46.4677 94.4383 46.1124 94.161C45.757 93.875 45.1894 93.732 44.4094 93.732ZM54.1856 102H49.2846V92.9H54.1856V93.745H50.2596V96.631H53.8606V97.502H50.2596V101.155H54.1856V102ZM60.9065 93.225L60.6985 94.096L59.9445 93.875C59.4071 93.745 58.9435 93.68 58.5535 93.68C57.5308 93.68 57.0195 94.135 57.0195 95.045C57.0195 95.4437 57.1755 95.773 57.4875 96.033C57.7995 96.2843 58.1765 96.488 58.6185 96.644C59.0691 96.7913 59.5155 96.956 59.9575 97.138C60.4081 97.3113 60.7895 97.5843 61.1015 97.957C61.4135 98.321 61.5695 98.7847 61.5695 99.348C61.5695 100.206 61.3051 100.878 60.7765 101.363C60.2478 101.84 59.4981 102.078 58.5275 102.078C58.0421 102.078 57.5525 102.009 57.0585 101.87C56.5731 101.723 56.1745 101.554 55.8625 101.363L56.1875 100.622C56.9761 100.986 57.7215 101.168 58.4235 101.168C59.1341 101.168 59.6715 101.025 60.0355 100.739C60.4081 100.453 60.5945 100.037 60.5945 99.491C60.5945 98.9363 60.2955 98.503 59.6975 98.191C59.4288 98.0523 59.1298 97.9223 58.8005 97.801C58.4798 97.6797 58.1548 97.5497 57.8255 97.411C57.5048 97.2637 57.2101 97.099 56.9415 96.917C56.6815 96.735 56.4648 96.488 56.2915 96.176C56.1268 95.864 56.0445 95.5 56.0445 95.084C56.0445 94.3387 56.2655 93.7667 56.7075 93.368C57.1581 92.9693 57.7605 92.77 58.5145 92.77C59.2685 92.77 60.0658 92.9217 60.9065 93.225ZM66.8056 102.078C65.5663 102.078 64.613 101.662 63.9456 100.83C63.287 99.9893 62.9576 98.854 62.9576 97.424C62.9576 95.994 63.3086 94.863 64.0106 94.031C64.7126 93.199 65.692 92.783 66.9486 92.783C67.642 92.783 68.3223 92.9087 68.9896 93.16L68.7556 93.966C68.227 93.7407 67.603 93.628 66.8836 93.628C65.9736 93.628 65.2543 93.9617 64.7256 94.629C64.197 95.2877 63.9326 96.1977 63.9326 97.359C63.9326 98.5117 64.1796 99.4477 64.6736 100.167C65.1763 100.878 65.874 101.233 66.7666 101.233C67.356 101.233 68.097 101.064 68.9896 100.726L69.2496 101.402C68.5043 101.853 67.6896 102.078 66.8056 102.078ZM72.8634 97.723H72.0574V101.987H71.0824V92.887H73.7084C74.5924 92.887 75.2554 93.0907 75.6974 93.498C76.1481 93.8967 76.3734 94.4687 76.3734 95.214C76.3734 95.734 76.1914 96.2107 75.8274 96.644C75.4721 97.0773 75.0301 97.3287 74.5014 97.398C74.9261 97.4933 75.2251 97.632 75.3984 97.814C75.5804 97.9873 75.7927 98.3643 76.0354 98.945L77.3224 101.987H76.2954L75.0344 99.075C74.8004 98.529 74.5361 98.1693 74.2414 97.996C73.9554 97.814 73.4961 97.723 72.8634 97.723ZM73.6564 93.719H72.0574V96.891H73.5264C74.0637 96.891 74.4884 96.735 74.8004 96.423C75.1211 96.1023 75.2814 95.6993 75.2814 95.214C75.2814 94.7287 75.1384 94.3603 74.8524 94.109C74.5664 93.849 74.1677 93.719 73.6564 93.719ZM79.8904 102H78.9154V92.9H79.8904V102ZM84.5553 98.178H83.2293V102H82.2543V92.9H84.8543C85.825 92.9 86.527 93.1123 86.9603 93.537C87.4023 93.9617 87.6233 94.6247 87.6233 95.526C87.6233 96.4187 87.3546 97.086 86.8173 97.528C86.28 97.9613 85.526 98.178 84.5553 98.178ZM84.4123 93.732H83.2293V97.346H84.0873C84.98 97.346 85.63 97.2117 86.0373 96.943C86.4446 96.6743 86.6483 96.215 86.6483 95.565C86.6483 94.9063 86.4706 94.4383 86.1153 94.161C85.76 93.875 85.1923 93.732 84.4123 93.732ZM90.9125 102V93.771H88.3645V92.9H94.3965V93.771H91.8745V102H90.9125Z" fill="black"/>
</svg>
