<svg width="122" height="122" viewBox="0 0 122 122" fill="none" xmlns="http://www.w3.org/2000/svg">
<circle cx="61" cy="61" r="60.75" fill="white" stroke="black" stroke-width="0.5"/>
<path d="M39.177 87.4L35.289 100H33.399L29.817 87.4H31.329L34.407 98.47L37.701 87.4H39.177ZM47.3832 87.85L47.0952 89.056L46.0512 88.75C45.3072 88.57 44.6652 88.48 44.1252 88.48C42.7092 88.48 42.0012 89.11 42.0012 90.37C42.0012 90.922 42.2172 91.378 42.6492 91.738C43.0812 92.086 43.6032 92.368 44.2152 92.584C44.8392 92.788 45.4572 93.016 46.0692 93.268C46.6932 93.508 47.2212 93.886 47.6532 94.402C48.0852 94.906 48.3012 95.548 48.3012 96.328C48.3012 97.516 47.9352 98.446 47.2032 99.118C46.4712 99.778 45.4332 100.108 44.0892 100.108C43.4172 100.108 42.7392 100.012 42.0552 99.82C41.3832 99.616 40.8312 99.382 40.3992 99.118L40.8492 98.092C41.9412 98.596 42.9732 98.848 43.9452 98.848C44.9292 98.848 45.6732 98.65 46.1772 98.254C46.6932 97.858 46.9512 97.282 46.9512 96.526C46.9512 95.758 46.5372 95.158 45.7092 94.726C45.3372 94.534 44.9232 94.354 44.4672 94.186C44.0232 94.018 43.5732 93.838 43.1172 93.646C42.6732 93.442 42.2652 93.214 41.8932 92.962C41.5332 92.71 41.2332 92.368 40.9932 91.936C40.7652 91.504 40.6512 91 40.6512 90.424C40.6512 89.392 40.9572 88.6 41.5692 88.048C42.1932 87.496 43.0272 87.22 44.0712 87.22C45.1152 87.22 46.2192 87.43 47.3832 87.85ZM60.0512 100.108C58.3352 100.108 57.0152 99.532 56.0912 98.38C55.1792 97.216 54.7232 95.644 54.7232 93.664C54.7232 91.684 55.2092 90.118 56.1812 88.966C57.1532 87.814 58.5092 87.238 60.2492 87.238C61.2092 87.238 62.1512 87.412 63.0752 87.76L62.7512 88.876C62.0192 88.564 61.1552 88.408 60.1592 88.408C58.8992 88.408 57.9032 88.87 57.1712 89.794C56.4392 90.706 56.0732 91.966 56.0732 93.574C56.0732 95.17 56.4152 96.466 57.0992 97.462C57.7952 98.446 58.7612 98.938 59.9972 98.938C60.8132 98.938 61.8392 98.704 63.0752 98.236L63.4352 99.172C62.4032 99.796 61.2752 100.108 60.0512 100.108ZM70.149 100.09C68.505 100.09 67.263 99.484 66.423 98.272C65.583 97.048 65.163 95.494 65.163 93.61C65.163 91.726 65.583 90.19 66.423 89.002C67.275 87.814 68.517 87.22 70.149 87.22C71.793 87.22 73.041 87.814 73.893 89.002C74.745 90.19 75.171 91.726 75.171 93.61C75.171 96.19 74.439 98.05 72.975 99.19C72.195 99.79 71.253 100.09 70.149 100.09ZM70.185 88.39C68.961 88.39 68.043 88.9 67.431 89.92C66.831 90.94 66.531 92.188 66.531 93.664C66.531 95.14 66.837 96.382 67.449 97.39C68.073 98.398 68.985 98.902 70.185 98.902C71.385 98.902 72.291 98.392 72.903 97.372C73.515 96.352 73.821 95.068 73.821 93.52C73.821 91.576 73.275 90.124 72.183 89.164C71.619 88.648 70.953 88.39 70.185 88.39ZM86.7528 93.25C86.7528 95.278 86.1648 96.91 84.9888 98.146C83.8128 99.382 82.2408 100 80.2728 100H77.6448V87.4H80.8308C82.6188 87.4 84.0528 87.946 85.1328 89.038C86.2128 90.13 86.7528 91.534 86.7528 93.25ZM85.2948 93.106C85.2948 91.69 84.8628 90.58 83.9988 89.776C83.1348 88.972 82.1028 88.57 80.9028 88.57H79.1028V98.83H80.4348C81.7908 98.83 82.9368 98.32 83.8728 97.3C84.8208 96.28 85.2948 94.882 85.2948 93.106ZM96.0851 100H89.2991V87.4H96.0851V88.57H90.6491V92.566H95.6351V93.772H90.6491V98.83H96.0851V100Z" fill="black"/>
<path d="M43.6656 43.8673L35.4809 51.3096C35.4809 51.3096 34.6394 51.9344 35.4809 53.0526L39.2828 56.5086C39.2828 56.5086 40.1866 57.477 41.5192 56.3749L50.1973 49.7949L43.6656 43.8673Z" fill="#1070B3"/>
<path d="M58.0383 43.9296L73.052 32.4664L72.9552 20.9963C72.9552 20.9963 72.3143 18.4925 70.1747 19.7951L50.1948 37.979L58.0383 43.9296Z" fill="#0877B9"/>
<path d="M35.4808 36.4342C35.4808 36.4342 34.2496 35.5466 35.7275 34.3615L39.1697 31.2836C39.1697 31.2836 40.1542 30.2484 41.1963 31.1499L72.9575 55.1968V66.7268C72.9575 66.7268 72.9414 68.5367 70.6197 68.3384L35.4808 36.4342Z" fill="#2489CA"/>
<path d="M70.6152 68.3546C71.4867 69.2468 72.5449 68.954 72.5449 68.954L84.2456 63.1878C85.7442 62.1665 85.5321 60.9007 85.5321 60.9007V26.4743C85.5321 24.9618 83.9827 24.4385 83.9827 24.4385L73.8429 19.5507C71.6273 18.1812 70.1748 19.7974 70.1748 19.7974C70.1748 19.7974 72.0423 18.4532 72.9553 20.9986V66.5194C72.9553 66.8329 72.8884 67.1396 72.7547 67.4162C72.4873 67.9557 71.9086 68.4583 70.5183 68.2462L70.6152 68.3546Z" fill="#3C99D4"/>
</svg>
